<svg width="25" height="25" viewBox="0 0 25 25" fill="none" xmlns="http://www.w3.org/2000/svg">
<g clip-path="url(#clip0_1_631)">
<path d="M12.5 25C19.4036 25 25 19.4036 25 12.5C25 5.59644 19.4036 0 12.5 0C5.59644 0 0 5.59644 0 12.5C0 19.4036 5.59644 25 12.5 25Z" fill="#0073E6"/>
<path d="M12.4971 13.1172L5.9082 9.83008V16.3613C5.90911 16.6924 6.04104 17.0097 6.27517 17.2439C6.50931 17.478 6.8266 17.6099 7.15771 17.6108H17.8423C18.1734 17.6099 18.4907 17.478 18.7248 17.2439C18.959 17.0097 19.0909 16.6924 19.0918 16.3613V9.89893L12.4971 13.1172Z" fill="#F4FBFF"/>
<path d="M12.5029 11.8828L19.0918 8.66699V8.63867C19.0909 8.30756 18.959 7.99026 18.7248 7.75613C18.4907 7.522 18.1734 7.39006 17.8423 7.38916H7.15771C6.83422 7.3898 6.5235 7.51554 6.29061 7.74007C6.05771 7.96459 5.92068 8.27049 5.9082 8.59375L12.5029 11.8828Z" fill="#F4FBFF"/>
</g>
<defs>
<clipPath id="clip0_1_631">
<rect width="25" height="25" fill="white"/>
</clipPath>
</defs>
</svg>
