<svg width="29" height="29" viewBox="0 0 29 29" fill="none" xmlns="http://www.w3.org/2000/svg">
<mask id="mask0_1_395" style="mask-type:luminance" maskUnits="userSpaceOnUse" x="0" y="0" width="29" height="29">
<path d="M0 0H29V29H0V0Z" fill="white"/>
</mask>
<g mask="url(#mask0_1_395)">
<path d="M21.5918 28.9823C21.8986 29.1868 22.293 29.206 22.6182 29.0321C22.9433 28.8581 23.1465 28.5191 23.1465 28.1503V25.7518H26.3945C26.9468 25.7518 27.3945 25.3041 27.3945 24.7518V3.39832C27.3945 1.43838 25.8056 -0.150513 23.8457 -0.150513H6.00391C5.90161 -0.150513 5.8029 -0.135105 5.70996 -0.106567C5.52889 -0.135046 5.34337 -0.150513 5.1543 -0.150513C3.19433 -0.150513 1.60549 1.43835 1.60547 3.39832V9.34558C1.60547 9.89787 2.05318 10.3456 2.60547 10.3456H6.70312V24.7518C6.70312 25.3041 7.15084 25.7518 7.70312 25.7518H16.0488V28.1503L16.0586 28.287C16.1019 28.6012 16.2927 28.8799 16.5771 29.0321C16.9023 29.206 17.2967 29.1868 17.6035 28.9823L19.5977 27.6532L21.5918 28.9823ZM8.70312 3.39832C8.70312 2.84293 8.5751 2.31756 8.34766 1.84949H23.8457C24.7011 1.84949 25.3945 2.54295 25.3945 3.39832V23.7518H23.1465V22.2518C23.6802 21.5239 23.9961 20.626 23.9961 19.6542C23.9961 17.2466 22.0482 15.1991 19.5977 15.1991C17.1472 15.1991 15.1992 17.2466 15.1992 19.6542C15.1992 20.626 15.5151 21.5239 16.0488 22.2518V23.7518H8.70312V3.39832ZM3.60547 3.39832C3.60549 2.54292 4.2989 1.84949 5.1543 1.84949C6.00969 1.84949 6.70311 2.54292 6.70312 3.39832V8.34558H3.60547V3.39832ZM22.9961 6.94714C23.5484 6.94714 23.9961 6.49943 23.9961 5.94714C23.996 5.3949 23.5483 4.94714 22.9961 4.94714H11.1016C10.5493 4.94714 10.1016 5.3949 10.1016 5.94714C10.1016 6.49943 10.5493 6.94714 11.1016 6.94714H22.9961ZM22.9961 10.3456C23.5484 10.3456 23.9961 9.89787 23.9961 9.34558C23.9961 8.79331 23.5484 8.34558 22.9961 8.34558H11.1016C10.5493 8.34558 10.1016 8.79331 10.1016 9.34558C10.1016 9.89787 10.5493 10.3456 11.1016 10.3456H22.9961ZM22.9961 13.744C23.5484 13.744 23.9961 13.2963 23.9961 12.744C23.996 12.1918 23.5483 11.744 22.9961 11.744H11.1016C10.5493 11.744 10.1016 12.1918 10.1016 12.744C10.1016 13.2963 10.5493 13.744 11.1016 13.744H22.9961ZM19.5977 22.0526C18.273 22.0526 17.1992 20.9788 17.1992 19.6542C17.1992 18.308 18.2944 17.1991 19.5977 17.1991C20.9009 17.1991 21.9961 18.308 21.9961 19.6542C21.9961 20.9788 20.9223 22.0526 19.5977 22.0526ZM20.1523 25.619C19.8165 25.3951 19.3789 25.3951 19.043 25.619L18.0488 26.2821V23.7723C18.5306 23.9536 19.0526 24.0526 19.5977 24.0526C20.1428 24.0526 20.6648 23.9536 21.1465 23.7723V26.2821L20.1523 25.619Z" fill="url(#paint0_linear_1_395)"/>
</g>
<defs>
<linearGradient id="paint0_linear_1_395" x1="-1.20099" y1="-9.40342" x2="32.5355" y2="-7.42842" gradientUnits="userSpaceOnUse">
<stop stop-color="#50A8FF"/>
<stop offset="0.479143" stop-color="#0079F2"/>
<stop offset="1" stop-color="#00468C"/>
</linearGradient>
</defs>
</svg>
