<svg width="14" height="14" viewBox="0 0 14 14" fill="none" xmlns="http://www.w3.org/2000/svg">
<g clip-path="url(#clip0_1_437)">
<path d="M12.8333 7C12.8333 10.2217 10.2216 12.8333 6.99996 12.8333M12.8333 7C12.8333 3.77834 10.2216 1.16667 6.99996 1.16667M12.8333 7H1.16663M6.99996 12.8333C3.7783 12.8333 1.16663 10.2217 1.16663 7M6.99996 12.8333C5.5021 11.2606 4.66663 9.1719 4.66663 7C4.66663 4.8281 5.5021 2.73942 6.99996 1.16667M6.99996 12.8333C8.49782 11.2606 9.33329 9.1719 9.33329 7C9.33329 4.8281 8.49782 2.73942 6.99996 1.16667M1.16663 7C1.16663 3.77834 3.7783 1.16667 6.99996 1.16667" stroke="#64758B" stroke-linecap="round" stroke-linejoin="round"/>
</g>
<defs>
<clipPath id="clip0_1_437">
<rect width="14" height="14" fill="white"/>
</clipPath>
</defs>
</svg>
