<svg width="28" height="28" viewBox="0 0 28 28" fill="none" xmlns="http://www.w3.org/2000/svg">
<path d="M4.51465 22.1875C5.7121 22.1875 6.86128 22.663 7.70801 23.5098C8.55472 24.3565 9.03027 25.5057 9.03027 26.7031C9.03049 26.8395 9.02257 26.9758 9.00781 27.1113C8.98482 27.355 8.87178 27.5818 8.69043 27.7461C8.50914 27.9104 8.27296 28.001 8.02832 28H1.00195C0.756887 28.0009 0.520257 27.9099 0.338867 27.7451C0.157505 27.5803 0.044008 27.3534 0.0214844 27.1094C0.00665719 26.9745 -0.000275127 26.8388 0 26.7031C0 25.5057 0.47554 24.3565 1.32227 23.5098C2.1689 22.6632 3.31738 22.1876 4.51465 22.1875ZM23.3271 22.1875C24.5246 22.1875 25.6738 22.663 26.5205 23.5098C27.3672 24.3565 27.8428 25.5057 27.8428 26.7031C27.843 26.8395 27.8351 26.9758 27.8203 27.1113C27.7973 27.355 27.6843 27.5818 27.5029 27.7461C27.3216 27.9104 27.0855 28.001 26.8408 28H19.8145C19.5694 28.0009 19.3328 27.9099 19.1514 27.7451C18.97 27.5803 18.8565 27.3534 18.834 27.1094C18.8192 26.9745 18.8122 26.8388 18.8125 26.7031C18.8125 25.5057 19.288 24.3565 20.1348 23.5098C20.9814 22.6632 22.1299 22.1876 23.3271 22.1875ZM17.6689 21.999C17.8155 21.9957 17.9614 22.0221 18.0977 22.0762C18.2338 22.1303 18.3576 22.2115 18.4619 22.3145C18.5663 22.4174 18.6492 22.5403 18.7051 22.6758C18.761 22.8113 18.7885 22.9569 18.7871 23.1035C18.7857 23.2501 18.7548 23.3949 18.6963 23.5293C18.6378 23.6638 18.5526 23.7848 18.4463 23.8857C18.3399 23.9867 18.2145 24.0657 18.0771 24.1172C15.4139 25.2087 12.4279 25.2087 9.76465 24.1172C9.50879 23.9989 9.30901 23.7859 9.20605 23.5234C9.1031 23.261 9.10467 22.9688 9.21191 22.708C9.31918 22.4473 9.5234 22.2381 9.78125 22.124C10.0391 22.0099 10.3315 21.9997 10.5967 22.0957C12.7268 22.9673 15.114 22.9674 17.2441 22.0957C17.3778 22.0355 17.5224 22.0024 17.6689 21.999ZM4.51465 16.9531C5.81338 16.9531 6.86621 18.006 6.86621 19.3047C6.86614 20.6034 5.81334 21.6563 4.51465 21.6563C3.21613 21.6561 2.16315 20.6032 2.16309 19.3047C2.16309 18.0061 3.21608 16.9533 4.51465 16.9531ZM23.3271 16.9531C24.6259 16.9531 25.6787 18.006 25.6787 19.3047C25.6786 20.6034 24.6258 21.6563 23.3271 21.6563C22.0286 21.6561 20.9757 20.6032 20.9756 19.3047C20.9756 18.0061 22.0286 16.9533 23.3271 16.9531ZM13.9209 8.86329C14.102 8.86329 14.2816 8.90054 14.4473 8.97364C14.613 9.0468 14.7617 9.15424 14.8838 9.28809L16.3164 10.8828C16.3758 10.9494 16.4494 11.0024 16.5312 11.0381L18.4912 11.9082C18.656 11.983 18.8032 12.0917 18.9238 12.2266C19.0445 12.3616 19.1364 12.5211 19.1924 12.6934C19.2482 12.8655 19.2673 13.0475 19.249 13.2275C19.2308 13.4076 19.1752 13.5818 19.0859 13.7393L18.0117 15.5947C17.9667 15.6724 17.9389 15.7592 17.9307 15.8486L17.708 17.9785C17.688 18.1587 17.6301 18.3335 17.5391 18.4902C17.4481 18.6468 17.3251 18.7831 17.1787 18.8897C17.0323 18.9961 16.8654 19.071 16.6885 19.1094C16.5114 19.1477 16.3279 19.1487 16.1504 19.1123L14.0547 18.6641C13.9669 18.6444 13.8759 18.6444 13.7881 18.6641L11.6924 19.1123C11.5149 19.1487 11.3314 19.1477 11.1543 19.1094C10.9772 19.071 10.8096 18.9963 10.6631 18.8897C10.5166 18.7831 10.3938 18.6469 10.3027 18.4902C10.2117 18.3335 10.1548 18.1587 10.1348 17.9785L9.91113 15.8486C9.90294 15.7593 9.87607 15.6723 9.83105 15.5947L8.75684 13.7393C8.66745 13.5818 8.61105 13.4077 8.59277 13.2275C8.57451 13.0475 8.5945 12.8655 8.65039 12.6934C8.70637 12.5211 8.79725 12.3616 8.91797 12.2266C9.03869 12.0915 9.18663 11.9831 9.35156 11.9082L11.3115 11.0381C11.3933 11.0024 11.4669 10.9494 11.5264 10.8828L12.959 9.28809C13.081 9.15429 13.2298 9.04678 13.3955 8.97364C13.561 8.90066 13.74 8.86333 13.9209 8.86329ZM4.31641 11.6045C4.60333 11.6442 4.86304 11.7966 5.03809 12.0274C5.21304 12.2581 5.28913 12.549 5.25 12.8359C5.14502 13.6074 5.14506 14.3897 5.25 15.1611C5.27496 15.3056 5.27065 15.454 5.2373 15.5967C5.20387 15.7395 5.14217 15.8747 5.05566 15.9932C4.96909 16.1116 4.85935 16.2119 4.7334 16.2871C4.60748 16.3623 4.46756 16.4115 4.32227 16.4316C4.1771 16.4517 4.0292 16.4424 3.8877 16.4043C3.7462 16.3661 3.61344 16.2993 3.49805 16.209C3.38256 16.1185 3.28583 16.0054 3.21484 15.877C3.14389 15.7486 3.09919 15.6068 3.08398 15.4609C2.95062 14.4916 2.95062 13.5084 3.08398 12.5391C3.12434 12.2523 3.27708 11.9924 3.50781 11.8174C3.73849 11.6426 4.02953 11.5661 4.31641 11.6045ZM23.5205 11.5635C23.6662 11.5435 23.8151 11.5532 23.957 11.5918C24.0988 11.6304 24.2313 11.6971 24.3467 11.7881C24.4621 11.8791 24.5583 11.9922 24.6289 12.1211C24.6996 12.2501 24.7433 12.3927 24.7578 12.5391C24.8912 13.5085 24.8912 14.4915 24.7578 15.4609C24.7207 15.7225 24.5908 15.9622 24.3916 16.1357C24.1924 16.3093 23.9371 16.4054 23.6729 16.4063C23.5173 16.4041 23.3638 16.3692 23.2227 16.3037C23.0816 16.2382 22.9555 16.1438 22.8535 16.0264C22.7516 15.909 22.6759 15.7709 22.6309 15.6221C22.5858 15.4731 22.573 15.3155 22.5928 15.1611C22.6977 14.3897 22.6978 13.6074 22.5928 12.8359C22.5673 12.6911 22.5713 12.5426 22.6045 12.3994C22.6378 12.2562 22.6995 12.1207 22.7861 12.002C22.8727 11.8833 22.9823 11.7834 23.1084 11.708C23.2346 11.6326 23.3749 11.5835 23.5205 11.5635ZM4.51465 5.23438C5.7121 5.23438 6.86128 5.70992 7.70801 6.55665C8.55472 7.40337 9.03027 8.55256 9.03027 9.75001C9.03049 9.88639 9.02257 10.0226 9.00781 10.1582C8.98482 10.4019 8.87178 10.6286 8.69043 10.793C8.50914 10.9573 8.27296 11.0479 8.02832 11.0469H1.00195C0.756887 11.0478 0.520257 10.9568 0.338867 10.792C0.157505 10.6272 0.044008 10.4003 0.0214844 10.1563C0.00665719 10.0214 -0.000275127 9.88571 0 9.75001C0 8.55256 0.47554 7.40337 1.32227 6.55665C2.1689 5.71008 3.31738 5.23448 4.51465 5.23438ZM23.3271 5.23438C24.5246 5.23438 25.6738 5.70992 26.5205 6.55665C27.3672 7.40337 27.8428 8.55256 27.8428 9.75001C27.843 9.88639 27.8351 10.0226 27.8203 10.1582C27.7973 10.4019 27.6843 10.6286 27.5029 10.793C27.3216 10.9572 27.0855 11.0479 26.8408 11.0469H19.8145C19.5694 11.0478 19.3328 10.9568 19.1514 10.792C18.97 10.6272 18.8565 10.4003 18.834 10.1563C18.8192 10.0214 18.8122 9.88571 18.8125 9.75001C18.8125 8.55256 19.288 7.40337 20.1348 6.55665C20.9814 5.71008 22.1299 5.23448 23.3271 5.23438ZM9.76465 3.88282C12.4279 2.79127 15.4139 2.79134 18.0771 3.88282C18.2143 3.9342 18.34 4.01253 18.4463 4.11329C18.5526 4.21424 18.6378 4.33626 18.6963 4.47071C18.7548 4.60511 18.7857 4.74992 18.7871 4.89649C18.7885 5.04307 18.761 5.18871 18.7051 5.32423C18.6492 5.45972 18.5662 5.58259 18.4619 5.68555C18.3576 5.78847 18.2338 5.86974 18.0977 5.92384C17.9614 5.97793 17.8155 6.00333 17.6689 6.00001C17.5224 5.99666 17.3778 5.96453 17.2441 5.9043C15.114 5.03264 12.7268 5.03272 10.5967 5.9043C10.4628 5.96617 10.3173 6.00051 10.1699 6.00489C10.0226 6.00924 9.87554 5.98348 9.73828 5.9297C9.60091 5.8758 9.47531 5.79393 9.37012 5.69044C9.26508 5.58702 9.18205 5.46349 9.12598 5.32716C9.06985 5.19068 9.042 5.04404 9.04395 4.89649C9.04592 4.74913 9.07713 4.60354 9.13672 4.46876C9.19643 4.33381 9.28371 4.21201 9.3916 4.11134C9.49935 4.01087 9.62615 3.93302 9.76465 3.88282ZM4.51465 7.62939e-06C5.81338 7.62939e-06 6.86621 1.05284 6.86621 2.35157C6.86621 3.6503 5.81338 4.70313 4.51465 4.70313C3.21609 4.70294 2.16309 3.65018 2.16309 2.35157C2.16309 1.05296 3.21608 0.000204234 4.51465 7.62939e-06ZM23.3271 7.62939e-06C24.6259 7.62939e-06 25.6787 1.05284 25.6787 2.35157C25.6787 3.6503 24.6259 4.70313 23.3271 4.70313C22.0286 4.70294 20.9756 3.65018 20.9756 2.35157C20.9756 1.05296 22.0286 0.000204234 23.3271 7.62939e-06Z" fill="url(#paint0_linear_1_375)"/>
<defs>
<linearGradient id="paint0_linear_1_375" x1="-3.02995" y1="36.8421" x2="33.3588" y2="34.4354" gradientUnits="userSpaceOnUse">
<stop stop-color="#50A8FF"/>
<stop offset="0.479143" stop-color="#0079F2"/>
<stop offset="1" stop-color="#00468C"/>
</linearGradient>
</defs>
</svg>
