<svg width="54" height="54" viewBox="0 0 54 54" fill="none" xmlns="http://www.w3.org/2000/svg">
<circle cx="27" cy="27" r="27" fill="white"/>
<path d="M38.7909 14.6482C38.0819 14.0348 37.0491 13.9865 36.2877 14.5339L23.2377 23.8999C22.6228 24.3418 22.3318 25.1069 22.4937 25.8479L24.4499 34.684C24.5965 35.3414 24.6687 36.0031 24.6731 36.6605C24.6731 36.7463 24.7672 36.7946 24.8372 36.7463L36.5174 28.5477C36.9353 28.2531 37.5218 28.4334 37.7012 28.9149C38.2854 30.4825 37.7712 32.2809 36.3358 33.3011C36.3358 33.3011 22.9685 42.7572 18.2422 46.1012C18.0453 46.2398 18.2181 46.5432 18.4369 46.4464L21.8592 44.9316C22.5615 44.6216 23.3427 44.5293 24.0954 44.6832C24.8853 44.8459 25.6949 44.9558 26.5199 45.0064C36.7712 45.6308 45.3749 36.9793 44.7447 26.6789C44.4515 21.8728 42.2022 17.6009 38.7887 14.6482H38.7909ZM37.1257 23.4206L28.1041 29.7767C27.7583 30.0208 27.2791 29.8317 27.1872 29.4184L26.7846 27.6023C26.603 26.7779 26.9312 25.9226 27.6205 25.4389L37.3073 18.6167C37.7253 18.3221 38.3095 18.5024 38.4889 18.9839C39.0753 20.5646 38.5589 22.4027 37.1257 23.4228V23.4206Z" fill="#131313"/>
<path d="M18.916 41.0181C20.5133 39.9078 21.2835 37.9356 20.8612 36.0295L18.6337 25.9665C18.2333 24.1615 18.9466 22.2927 20.4433 21.2176L37.3925 9.05498C37.5325 8.95385 37.41 8.73399 37.2503 8.80434L32.9375 10.6907C32.3926 10.9304 31.7865 10.9809 31.2045 10.8556C30.0338 10.6028 28.8194 10.4709 27.5744 10.4709C18.1283 10.4709 10.3845 18.2429 10.3735 27.7342C10.367 33.2438 12.9271 38.1533 16.9182 41.3215C17.3537 41.6666 17.9663 41.6776 18.4215 41.361L18.9138 41.0181H18.916Z" fill="#131313"/>
</svg>
