<svg width="51" height="51" viewBox="0 0 51 51" fill="none" xmlns="http://www.w3.org/2000/svg">
<rect x="0.5" y="0.5" width="50" height="50" rx="9.5" fill="#F4FBFF" stroke="#0073E6"/>
<path d="M28.5 18H23.5L21 21H18C17.4696 21 16.9609 21.2107 16.5858 21.5858C16.2107 21.9609 16 22.4696 16 23V32C16 32.5304 16.2107 33.0391 16.5858 33.4142C16.9609 33.7893 17.4696 34 18 34H34C34.5304 34 35.0391 33.7893 35.4142 33.4142C35.7893 33.0391 36 32.5304 36 32V23C36 22.4696 35.7893 21.9609 35.4142 21.5858C35.0391 21.2107 34.5304 21 34 21H31L28.5 18Z" stroke="#0073E6" stroke-width="2" stroke-linecap="round" stroke-linejoin="round"/>
<path d="M26 30C27.6569 30 29 28.6569 29 27C29 25.3431 27.6569 24 26 24C24.3431 24 23 25.3431 23 27C23 28.6569 24.3431 30 26 30Z" stroke="#0073E6" stroke-width="2" stroke-linecap="round" stroke-linejoin="round"/>
</svg>
