<svg width="51" height="51" viewBox="0 0 51 51" fill="none" xmlns="http://www.w3.org/2000/svg">
<rect x="0.5" y="0.5" width="50" height="50" rx="9.5" fill="#F4FBFF" stroke="#0073E6"/>
<path d="M34 24C34 28.993 28.461 34.193 26.601 35.799C26.4277 35.9293 26.2168 35.9998 26 35.9998C25.7832 35.9998 25.5723 35.9293 25.399 35.799C23.539 34.193 18 28.993 18 24C18 21.8783 18.8429 19.8434 20.3431 18.3431C21.8434 16.8429 23.8783 16 26 16C28.1217 16 30.1566 16.8429 31.6569 18.3431C33.1571 19.8434 34 21.8783 34 24Z" stroke="#0073E6" stroke-width="2" stroke-linecap="round" stroke-linejoin="round"/>
<path d="M26 27C27.6569 27 29 25.6569 29 24C29 22.3431 27.6569 21 26 21C24.3431 21 23 22.3431 23 24C23 25.6569 24.3431 27 26 27Z" stroke="#0073E6" stroke-width="2" stroke-linecap="round" stroke-linejoin="round"/>
</svg>
