<svg width="51" height="51" viewBox="0 0 51 51" fill="none" xmlns="http://www.w3.org/2000/svg">
<rect x="0.5" y="0.5" width="50" height="50" rx="9.5" fill="#F4FBFF" stroke="#0073E6"/>
<path d="M30 27L35.223 30.482C35.2983 30.5321 35.3858 30.5609 35.4761 30.5652C35.5664 30.5695 35.6563 30.5493 35.736 30.5066C35.8157 30.4639 35.8824 30.4004 35.9289 30.3228C35.9754 30.2452 36 30.1565 36 30.066V21.87C36 21.782 35.9768 21.6956 35.9328 21.6195C35.8887 21.5433 35.8253 21.4801 35.7491 21.4363C35.6728 21.3925 35.5863 21.3696 35.4983 21.3699C35.4103 21.3702 35.324 21.3937 35.248 21.438L30 24.5M18 20H28C29.1046 20 30 20.8954 30 22V30C30 31.1046 29.1046 32 28 32H18C16.8954 32 16 31.1046 16 30V22C16 20.8954 16.8954 20 18 20Z" stroke="#0073E6" stroke-width="2" stroke-linecap="round" stroke-linejoin="round"/>
</svg>
