<svg width="51" height="51" viewBox="0 0 51 51" fill="none" xmlns="http://www.w3.org/2000/svg">
<rect x="0.5" y="0.5" width="50" height="50" rx="9.5" fill="#F4FBFF" stroke="#0073E6"/>
<path d="M23 36V32H29V36M22 20H22.01M30 20H30.01M26 20H26.01M26 24H26.01M26 28H26.01M30 24H30.01M30 28H30.01M22 24H22.01M22 28H22.01M20 16H32C33.1046 16 34 16.8954 34 18V34C34 35.1046 33.1046 36 32 36H20C18.8954 36 18 35.1046 18 34V18C18 16.8954 18.8954 16 20 16Z" stroke="#0073E6" stroke-width="2" stroke-linecap="round" stroke-linejoin="round"/>
</svg>
