<svg width="25" height="24" viewBox="0 0 25 24" fill="none" xmlns="http://www.w3.org/2000/svg">
<path d="M12.5 0C19.4033 0 25 4.48096 25 10.0093C25 16.6631 12.5952 24.0854 11.6382 23.3374C10.8164 22.6953 13.0674 20.2563 10.3047 19.8643C5.27685 19.146 0 15.5679 0 10.0093C0 4.48096 5.59668 0 12.5 0ZM5.30176 13.2017H7.76856C8.12695 13.2017 8.42041 12.9087 8.42041 12.5498C8.42041 12.1631 8.17383 11.8433 7.76856 11.8433H5.95361V7.71484C5.95361 7.35596 5.66064 7.0625 5.30176 7.0625C4.91553 7.0625 4.5957 7.30908 4.5957 7.71484V12.5498C4.5957 12.9546 4.91504 13.2017 5.30176 13.2017ZM20.8691 10.1714C20.8691 9.78467 20.6226 9.46484 20.2173 9.46484H18.4023V8.43262H20.2173C20.5757 8.43262 20.8691 8.13916 20.8691 7.78076C20.8691 7.39404 20.6226 7.07422 20.2173 7.07422H17.7505C17.3638 7.07422 17.0444 7.3208 17.0444 7.72656V12.561C17.0444 12.9199 17.3374 13.2134 17.6963 13.2134H20.2173C20.5757 13.2134 20.8691 12.9199 20.8691 12.561C20.8691 12.1748 20.6226 11.855 20.2173 11.855H18.4023V10.8228H20.2173C20.5757 10.8232 20.8691 10.5298 20.8691 10.1714ZM16.2095 12.5498V7.71484C16.2095 7.35645 15.916 7.06299 15.5576 7.06299C15.1709 7.06299 14.8511 7.30957 14.8511 7.71484V10.5532L12.4946 7.39258C12.3823 7.19629 12.1704 7.06299 11.9287 7.06299C11.5425 7.06299 11.2227 7.30957 11.2227 7.71484V12.5498C11.2227 12.9556 11.5425 13.2021 11.9287 13.2021C12.2876 13.2021 12.5806 12.9087 12.5806 12.5498V9.65869L14.9541 12.8999C15.0786 13.0928 15.2681 13.2017 15.5029 13.2017C15.8911 13.2017 16.2095 12.958 16.2095 12.5498ZM9.65283 13.2017C10.0117 13.2017 10.3047 12.9087 10.3047 12.5498V7.71484C10.3047 7.35596 10.0117 7.06299 9.65283 7.06299C9.2666 7.06299 8.94629 7.30957 8.94629 7.71484V12.5498C8.94629 12.9551 9.2666 13.2017 9.65283 13.2017Z" fill="#0073E6"/>
</svg>
