<svg width="23" height="23" viewBox="0 0 23 23" fill="none" xmlns="http://www.w3.org/2000/svg">
<g clip-path="url(#clip0_1_640)">
<path d="M19.6304 3.36705C15.1387 -1.1233 7.85727 -1.12222 3.36692 3.36952C-1.12342 7.86126 -1.12234 15.1426 3.36939 19.633C7.86113 24.1233 15.1425 24.1223 19.6329 19.6305C21.7894 17.4733 23.0006 14.5478 22.9999 11.4975C22.9993 8.4478 21.7872 5.52321 19.6304 3.36705ZM17.4162 16.0194C17.4157 16.0199 17.4153 16.0204 17.4147 16.0209V16.0171L16.832 16.5959C16.0785 17.359 14.981 17.673 13.9378 17.4239C12.8869 17.1426 11.8878 16.6948 10.9785 16.0976C10.1337 15.5577 9.35083 14.9265 8.64403 14.2154C7.9937 13.5698 7.40944 12.861 6.89985 12.0994C6.34246 11.2799 5.90128 10.3873 5.58885 9.44673C5.23069 8.34183 5.52749 7.12943 6.35553 6.31491L7.03785 5.63259C7.22755 5.44203 7.53581 5.44136 7.72632 5.63106C7.72682 5.63156 7.72736 5.63205 7.72785 5.63259L9.88217 7.78691C10.0727 7.97661 10.0734 8.28487 9.8837 8.47538C9.8832 8.47588 9.88271 8.47637 9.88217 8.47691L8.61717 9.74191C8.2542 10.1009 8.20856 10.6714 8.50985 11.0836C8.96738 11.7115 9.47369 12.3024 10.024 12.8508C10.6376 13.467 11.3047 14.0276 12.0173 14.526C12.4291 14.8132 12.9874 14.7648 13.3437 14.411L14.5665 13.169C14.7562 12.9784 15.0644 12.9777 15.255 13.1674C15.2555 13.1679 15.2559 13.1684 15.2565 13.169L17.4147 15.331C17.6053 15.5206 17.6059 15.8288 17.4162 16.0194Z" fill="#0073E6"/>
</g>
<defs>
<clipPath id="clip0_1_640">
<rect width="23" height="23" fill="white"/>
</clipPath>
</defs>
</svg>
