<svg width="54" height="54" viewBox="0 0 54 54" fill="none" xmlns="http://www.w3.org/2000/svg">
<g clip-path="url(#clip0_1_765)">
<path d="M54 27C54 12.0884 41.9116 0 27 0C12.0884 0 0 12.0884 0 27C0 39.6619 8.71776 50.287 20.4779 53.2051V35.2512H14.9105V27H20.4779V23.4446C20.4779 14.2549 24.637 9.9954 33.6593 9.9954C35.37 9.9954 38.3216 10.3313 39.5291 10.6661V18.1451C38.8919 18.0781 37.7849 18.0446 36.41 18.0446C31.9831 18.0446 30.2724 19.7219 30.2724 24.0818V27H39.0917L37.5764 35.2512H30.2724V53.8024C43.6417 52.1878 54.0011 40.8046 54.0011 27H54Z" fill="white"/>
<path d="M37.5754 35.2512L39.0906 27H30.2713V24.0818C30.2713 19.7219 31.9821 18.0446 36.409 18.0446C37.7838 18.0446 38.8908 18.0781 39.528 18.1451V10.6661C38.3206 10.3302 35.3689 9.99539 33.6582 9.99539C24.6359 9.99539 20.4768 14.2549 20.4768 23.4446V27H14.9094V35.2512H20.4768V53.2051C22.5655 53.7235 24.7504 54 26.9989 54C28.1059 54 29.1978 53.9319 30.2703 53.8023V35.2512H37.5743H37.5754Z" fill="#131313"/>
</g>
<defs>
<clipPath id="clip0_1_765">
<rect width="54" height="54" fill="white"/>
</clipPath>
</defs>
</svg>
