<svg width="30" height="29" viewBox="0 0 30 29" fill="none" xmlns="http://www.w3.org/2000/svg">
<path d="M28.5084 12.9754L23.292 18.0548L24.5248 25.2344C24.7531 26.5299 23.8856 27.7627 22.59 27.991C22.0707 28.0823 21.5342 27.9967 21.0662 27.7513L14.6171 24.3612L8.17368 27.7513C7.00941 28.3619 5.5655 27.9168 4.95483 26.7525C4.70942 26.2902 4.62381 25.7537 4.71513 25.2401L5.94217 18.0605L0.725802 12.9811C-0.22159 12.0622 -0.244419 10.5555 0.674438 9.60812C1.0397 9.23145 1.52481 8.98033 2.04987 8.90614L9.25234 7.86172L12.4769 1.3327C13.059 0.151315 14.4858 -0.333795 15.6672 0.24263C16.1409 0.476625 16.5233 0.859006 16.7573 1.3327L19.9818 7.86172L27.1843 8.90614C28.4855 9.09447 29.393 10.3044 29.1989 11.6113C29.1248 12.1307 28.8793 12.6101 28.5084 12.9754Z" fill="url(#paint0_linear_1_422)"/>
<defs>
<linearGradient id="paint0_linear_1_422" x1="-3.18038" y1="36.8771" x2="34.9984" y2="34.2291" gradientUnits="userSpaceOnUse">
<stop stop-color="#50A8FF"/>
<stop offset="0.479143" stop-color="#0079F2"/>
<stop offset="1" stop-color="#00468C"/>
</linearGradient>
</defs>
</svg>
