<svg width="13" height="9" viewBox="0 0 13 9" fill="none" xmlns="http://www.w3.org/2000/svg">
<g clip-path="url(#clip0_1_443)">
<path d="M0 0H13V9H0V0Z" fill="white"/>
<path d="M0 0H13V0.692105H0V0ZM0 1.38421H13V2.07632H0V1.38421ZM0 2.76842H13V3.46053H0V2.76842ZM0 4.15263H13V4.84474H0V4.15263ZM0 5.53947H13V6.23158H0V5.53947ZM0 6.92368H13V7.61579H0V6.92368ZM0 8.30789H13V9H0V8.30789Z" fill="#D80027"/>
<path d="M0 0H6.5V4.84474H0V0Z" fill="#2E52B2"/>
<path d="M1.21131 3.65526L1.10994 3.31842L0.998443 3.65526H0.66394L0.935091 3.85789L0.833726 4.19474L1.10994 3.98684L1.37856 4.19474L1.27466 3.85789L1.55088 3.65526H1.21131ZM2.63801 3.65526L2.53412 3.31842L2.42768 3.65526H2.09318L2.36433 3.85789L2.26297 4.19474L2.53412 3.98684L2.8078 4.19474L2.70644 3.85789L2.97759 3.65526H2.63801ZM4.06979 3.65526L3.96082 3.31842L3.85946 3.65526H3.51735L3.7961 3.85789L3.68967 4.19474L3.96082 3.98684L4.23957 4.19474L4.13314 3.85789L4.40429 3.65526H4.06979ZM5.49396 3.65526L5.3926 3.31842L5.28616 3.65526H4.94913L5.22281 3.85789L5.12145 4.19474L5.3926 3.98684L5.66628 4.19474L5.55731 3.85789L5.83607 3.65526H5.49396ZM2.53412 1.98158L2.42768 2.31842H2.09318L2.36433 2.52632L2.26297 2.85789L2.53412 2.65263L2.8078 2.85789L2.70644 2.52632L2.97759 2.31842H2.63801L2.53412 1.98158ZM1.10994 1.98158L0.998443 2.31842H0.66394L0.935091 2.52632L0.833726 2.85789L1.10994 2.65263L1.37856 2.85789L1.27466 2.52632L1.55088 2.31842H1.21131L1.10994 1.98158ZM3.96082 1.98158L3.85946 2.31842H3.51735L3.7961 2.52632L3.68967 2.85789L3.96082 2.65263L4.23957 2.85789L4.13314 2.52632L4.40429 2.31842H4.06979L3.96082 1.98158ZM5.3926 1.98158L5.28616 2.31842H4.94913L5.22281 2.52632L5.12145 2.85789L5.3926 2.65263L5.66628 2.85789L5.55731 2.52632L5.83607 2.31842H5.49396L5.3926 1.98158ZM1.10994 0.65L0.998443 0.981579H0.66394L0.935091 1.18947L0.833726 1.52368L1.10994 1.31579L1.37856 1.52368L1.27466 1.18947L1.55088 0.981579H1.21131L1.10994 0.65ZM2.53412 0.65L2.42768 0.981579H2.09318L2.36433 1.18947L2.26297 1.52368L2.53412 1.31579L2.8078 1.52368L2.70644 1.18947L2.97759 0.981579H2.63801L2.53412 0.65ZM3.96082 0.65L3.85946 0.981579H3.51735L3.7961 1.18947L3.68967 1.52368L3.96082 1.31579L4.23957 1.52368L4.13314 1.18947L4.40429 0.981579H4.06979L3.96082 0.65ZM5.3926 0.65L5.28616 0.981579H4.94913L5.22281 1.18947L5.12145 1.52368L5.3926 1.31579L5.66628 1.52368L5.55731 1.18947L5.83607 0.981579H5.49396L5.3926 0.65Z" fill="white"/>
</g>
<defs>
<clipPath id="clip0_1_443">
<rect width="13" height="9" fill="white"/>
</clipPath>
</defs>
</svg>
